<?xml version="1.0" encoding="UTF-8"?>
<svg version="1.1" xmlns="http://www.w3.org/2000/svg" width="1024" height="1024">
<path d="M0 0 C337.92 0 675.84 0 1024 0 C1024 337.92 1024 675.84 1024 1024 C686.08 1024 348.16 1024 0 1024 C0 686.08 0 348.16 0 0 Z " fill="#050304" transform="translate(0,0)"/>
<path d="M0 0 C17.82 0 35.64 0 54 0 C56.248125 4.95 58.49625 9.9 60.8125 15 C61.51608643 16.54558594 62.21967285 18.09117187 62.94458008 19.68359375 C63.51143543 20.934803 64.07809817 22.18609953 64.64453125 23.4375 C64.93146851 24.06591797 65.21840576 24.69433594 65.51403809 25.34179688 C67.26884792 29.22643337 68.84472537 33.14227245 70.29730225 37.15003967 C71.50355665 40.32569064 72.97266865 43.37467081 74.4375 46.4375 C79.13211112 56.32255756 83.44076684 66.35221185 87.6875 76.4375 C88.66998115 78.76978062 89.65302447 81.10182454 90.63671875 83.43359375 C91.06686279 84.45509521 91.49700684 85.47659668 91.94018555 86.52905273 C92.58698901 88.03706882 93.26617887 89.53235775 94 91 C94.33 61.3 94.66 31.6 95 1 C107.54 1 120.08 1 133 1 C133 23.44 133 45.88 133 69 C144.63625482 68.96067496 144.63625482 68.96067496 156.27246094 68.90991211 C157.75976488 68.90698435 159.24706965 68.90443784 160.734375 68.90234375 C161.47187988 68.89722778 162.20938477 68.89211182 162.96923828 68.88684082 C169.40914202 68.8858028 175.50858428 69.45904869 182 70 C182 80.23 182 90.46 182 101 C165.92063227 101 165.92063227 101 158.97631836 100.64868164 C158.18204941 100.61127365 157.38778046 100.57386566 156.56944275 100.5353241 C153.99275566 100.41328198 151.41631393 100.28668721 148.83984375 100.16015625 C147.00120141 100.07252799 145.16254233 99.98525035 143.3238678 99.89830017 C138.50335299 99.6696594 133.68301935 99.4374211 128.86273193 99.20404053 C120.29280319 98.78937521 111.72265007 98.37943848 103.15234375 97.97265625 C101.7779117 97.90725584 101.7779117 97.90725584 100.37571335 97.84053421 C84.58752845 97.09187125 68.79895246 96.47494152 53 96 C52.34956281 94.27255984 51.70485156 92.5429631 51.0625 90.8125 C50.70285156 89.84957031 50.34320312 88.88664062 49.97265625 87.89453125 C49 85 49 85 48 80 C34.14 80 20.28 80 6 80 C5.34 82.31 4.68 84.62 4 87 C3.01 89.64 2.02 92.28 1 95 C-24.41 95 -49.82 95 -76 95 C-76.33 77.18 -76.66 59.36 -77 41 C-81.68527911 54.31276634 -81.68527911 54.31276634 -86.1875 67.6875 C-87.28337615 71.0310881 -88.49923248 74.19383641 -90 77.375 C-92.77428897 83.33091402 -94.28168661 89.67906147 -96 96 C-105.24 96 -114.48 96 -124 96 C-129.59630635 80.43766864 -135.14891197 64.88358465 -140.2890625 49.16455078 C-141.18388969 46.44012158 -142.09317972 43.72046084 -143 41 C-143.33 59.81 -143.66 78.62 -144 98 C-155.88 98.33 -167.76 98.66 -180 99 C-180 66.66 -180 34.32 -180 1 C-162.51 1 -145.02 1 -127 1 C-125.02 6.94 -123.04 12.88 -121 19 C-118.59917809 25.40856157 -118.59917809 25.40856157 -116.0625 31.75 C-113.77790033 37.4129845 -111.87638882 43.19117929 -110 49 C-108.17678022 46.26517034 -107.3982821 44.42457151 -106.4921875 41.33203125 C-106.22792969 40.43935547 -105.96367187 39.54667969 -105.69140625 38.62695312 C-105.42199219 37.69818359 -105.15257812 36.76941406 -104.875 35.8125 C-104.45927734 34.40194336 -104.45927734 34.40194336 -104.03515625 32.96289062 C-103.35220873 30.64322404 -102.67401453 28.3222749 -102 26 C-101.34 26 -100.68 26 -100 26 C-99.67 23.69 -99.34 21.38 -99 19 C-97.02 13.06 -95.04 7.12 -93 1 C-75.51 1 -58.02 1 -40 1 C-39.67 29.71 -39.34 58.42 -39 88 C-32.83538081 74.13447881 -32.83538081 74.13447881 -26.7409668 60.23999023 C-23.387484 52.54751902 -20.03972543 44.8947948 -16.1875 37.4375 C-13.40205776 32.03241566 -11.25977049 26.55644211 -9.20898438 20.84667969 C-7.25347888 15.47299276 -4.86110643 10.42074058 -2.19921875 5.35546875 C-0.9001842 2.94824372 -0.9001842 2.94824372 0 0 Z " fill="#F5DEC8" transform="translate(511,419)"/>
<path d="M0 0 C17.49 0 34.98 0 53 0 C54.98 5.94 56.96 11.88 59 18 C61.40082191 24.40856157 61.40082191 24.40856157 63.9375 30.75 C66.22209967 36.4129845 68.12361118 42.19117929 70 48 C71.82321978 45.26517034 72.6017179 43.42457151 73.5078125 40.33203125 C73.77207031 39.43935547 74.03632813 38.54667969 74.30859375 37.62695312 C74.57800781 36.69818359 74.84742188 35.76941406 75.125 34.8125 C75.54072266 33.40194336 75.54072266 33.40194336 75.96484375 31.96289062 C76.64779127 29.64322404 77.32598547 27.3222749 78 25 C78.66 25 79.32 25 80 25 C80.33 22.69 80.66 20.38 81 18 C82.98 12.06 84.96 6.12 87 0 C104.49 0 121.98 0 140 0 C140 30.69 140 61.38 140 93 C135.65072284 93.86985543 132.12736067 94.11575046 127.73046875 94.09765625 C126.48418701 94.09515869 125.23790527 94.09266113 123.95385742 94.09008789 C122.38095947 94.08098389 120.80806152 94.07187988 119.1875 94.0625 C111.6696875 94.0315625 111.6696875 94.0315625 104 94 C103.67 76.18 103.34 58.36 103 40 C98.31472089 53.31276634 98.31472089 53.31276634 93.8125 66.6875 C92.71662385 70.0310881 91.50076752 73.19383641 90 76.375 C87.22571103 82.33091402 85.71831339 88.67906147 84 95 C74.76 95 65.52 95 56 95 C50.40369365 79.43766864 44.85108803 63.88358465 39.7109375 48.16455078 C38.81611031 45.44012158 37.90682028 42.72046084 37 40 C36.67 58.81 36.34 77.62 36 97 C24.12 97.33 12.24 97.66 0 98 C0 65.66 0 33.32 0 0 Z " fill="#F6DFC8" transform="translate(331,420)"/>
<path d="M0 0 C32.01 0 64.02 0 97 0 C97 8.58 97 17.16 97 26 C84.30855032 26.95036209 71.72294771 27.12029193 59 27.0625 C57.04948033 27.05746954 55.09895939 27.0529094 53.1484375 27.04882812 C48.43225948 27.03795747 43.71614434 27.02078019 39 27 C39 31.62 39 36.24 39 41 C40.36125 40.855625 41.7225 40.71125 43.125 40.5625 C60.45276112 38.85947372 77.61354528 38.80142374 95 39 C95 46.92 95 54.84 95 63 C88.95355442 63.28743714 82.90707534 63.57311568 76.86035156 63.85449219 C74.80822107 63.95049452 72.75613623 64.04747858 70.70410156 64.14550781 C60.12785949 64.65011917 49.59050043 65.14458021 39 65 C39 69.62 39 74.24 39 79 C44.60536123 78.59507312 50.21040097 78.18602537 55.81518555 77.77319336 C57.72102764 77.63339381 59.62695201 77.49471114 61.53295898 77.35717773 C64.27610425 77.15904182 67.01892637 76.95686175 69.76171875 76.75390625 C70.61086349 76.6934462 71.46000824 76.63298615 72.33488464 76.57069397 C73.53556328 76.48071388 73.53556328 76.48071388 74.76049805 76.38891602 C75.45999069 76.33784195 76.15948334 76.28676788 76.88017273 76.23414612 C79.27427874 75.96970446 81.63810844 75.47237831 84 75 C88.62 75 93.24 75 98 75 C98 84.24 98 93.48 98 103 C94.63554687 103.18175781 94.63554687 103.18175781 91.203125 103.3671875 C88.98867608 103.49142124 86.77436722 103.61792203 84.56005859 103.74462891 C83.0416353 103.83032306 81.52308058 103.91372478 80.00439453 103.99462891 C71.97936012 104.42369015 64.15611128 105.01493029 56.23974609 106.46484375 C49.75970162 107.53524748 43.21465148 108.13224282 36.68334961 108.80493164 C34.2017719 109.06102716 31.72099732 109.3240319 29.24023438 109.58789062 C27.61202238 109.75822606 25.98376839 109.92816071 24.35546875 110.09765625 C23.63932907 110.17371597 22.92318939 110.2497757 22.18534851 110.32814026 C14.79243367 111.0824013 7.4321617 111.50452255 0 112 C0 75.04 0 38.08 0 0 Z " fill="#F8E0C9" transform="translate(128,422)"/>
<path d="M0 0 C12.87 0 25.74 0 39 0 C39 22.44 39 44.88 39 68 C47.58 67.67 56.16 67.34 65 67 C72.33324347 66.96369681 79.66682962 66.9511122 87 67 C87 77.23 87 87.46 87 98 C82.111875 98.103125 77.22375 98.20625 72.1875 98.3125 C58.16503515 98.66626678 44.26093914 99.5763616 30.30541992 100.98364258 C20.04661911 101.9758762 10.44079728 102 0 102 C0 68.34 0 34.68 0 0 Z " fill="#F6DEC7" transform="translate(236,421)"/>
<path d="M0 0 C12.54 0 25.08 0 38 0 C38 23.1 38 46.2 38 70 C41.96 70 45.92 70 50 70 C53.16646749 70.11985019 56.32190554 70.25765333 59.484375 70.4375 C60.31084534 70.48189209 61.13731567 70.52628418 61.98883057 70.57202148 C64.57606149 70.71166949 67.16302252 70.85574115 69.75 71 C71.52602559 71.09665004 73.30206719 71.19300639 75.078125 71.2890625 C79.3856482 71.52211879 83.69277707 71.76118368 88 72 C88 82.89 88 93.78 88 105 C58.96 103.02 29.92 101.04 0 99 C0 66.33 0 33.66 0 0 Z " fill="#F6DFC8" transform="translate(701,422)"/>
<path d="M0 0 C12.54 0 25.08 0 38 0 C38 22.44 38 44.88 38 68 C49.63625482 67.96067496 49.63625482 67.96067496 61.27246094 67.90991211 C62.75976488 67.90698435 64.24706965 67.90443784 65.734375 67.90234375 C66.47187988 67.89722778 67.20938477 67.89211182 67.96923828 67.88684082 C74.40914202 67.8858028 80.50858428 68.45904869 87 69 C87 79.23 87 89.46 87 100 C71.24767151 100 71.24767151 100 66.00146484 99.74047852 C64.81998871 99.68364395 63.63851257 99.62680939 62.42123413 99.56825256 C61.19683624 99.50576828 59.97243835 99.443284 58.7109375 99.37890625 C56.75240341 99.28258156 56.75240341 99.28258156 54.75430298 99.18431091 C52.01642834 99.04942144 49.27868252 98.91223419 46.54101562 98.77319336 C43.06767163 98.59688148 39.59410908 98.42542736 36.12044334 98.25558567 C32.7546644 98.09055373 29.38905762 97.92214696 26.0234375 97.75390625 C24.79499115 97.6934462 23.5665448 97.63298615 22.3008728 97.57069397 C20.53811508 97.48071388 20.53811508 97.48071388 18.73974609 97.38891602 C17.72496185 97.33784195 16.71017761 97.28676788 15.66464233 97.23414612 C10.43757301 96.90017137 5.21963546 96.43496962 0 96 C0 64.32 0 32.64 0 0 Z " fill="#F6DFC8" transform="translate(606,420)"/>
<path d="M0 0 C18 0 18 0 23.0390625 4.8125 C24.3001311 6.83546421 25.49543856 8.90076938 26.625 11 C27.25921875 12.04929687 27.8934375 13.09859375 28.546875 14.1796875 C30.09024421 16.75196952 31.55369927 19.37191372 33 22 C33.33 14.74 33.66 7.48 34 0 C38.95 0 43.9 0 49 0 C49 14.85 49 29.7 49 45 C31 45 31 45 27.1953125 41.9296875 C26.05859375 39.9609375 26.05859375 39.9609375 25.125 37.875 C24.76277344 37.20984375 24.40054688 36.5446875 24.02734375 35.859375 C23.34831217 34.60917245 22.69659951 33.34332075 22.08642578 32.05810547 C20.60360356 29.2490737 18.76194134 26.64291202 17 24 C16.67 30.93 16.34 37.86 16 45 C10.72 45 5.44 45 0 45 C0 30.15 0 15.3 0 0 Z " fill="#F1DBC5" transform="translate(848,425)"/>
<path d="M0 0 C15.18 0 30.36 0 46 0 C46 4.29 46 8.58 46 13 C40.72 13 35.44 13 30 13 C30 23.23 30 33.46 30 44 C25.05 44 20.1 44 15 44 C15 33.77 15 23.54 15 13 C10.05 13 5.1 13 0 13 C0 8.71 0 4.42 0 0 Z " fill="#F4DDC6" transform="translate(797,425)"/>
<path d="M0 0 C0.99 0.33 1.98 0.66 3 1 C3.69894976 2.95705933 4.37669312 4.9232235 4.97265625 6.9140625 C6.58950024 11.77074217 8.64391047 16.44518093 10.66308594 21.14648438 C13 26.68193998 13 26.68193998 13 30 C5.08 30 -2.84 30 -11 30 C-7.61316872 18.71056241 -7.61316872 18.71056241 -5.5 13.3125 C-4.85998047 11.67667969 -4.85998047 11.67667969 -4.20703125 10.0078125 C-2.85786855 6.64582131 -1.46406271 3.31340507 0 0 Z " fill="#0F0B0B" transform="translate(537,446)"/>
<path d="M0 0 C0.33 0 0.66 0 1 0 C1 30.03 1 60.06 1 91 C0.01 89.68 -0.98 88.36 -2 87 C-1.505 86.01 -1.505 86.01 -1 85 C-0.87751784 82.31574013 -0.81430178 79.65572215 -0.79467773 76.97021484 C-0.78477814 76.14086929 -0.77487854 75.31152374 -0.76467896 74.45704651 C-0.73302336 71.70837281 -0.70829051 68.95968182 -0.68359375 66.2109375 C-0.66302773 64.30807031 -0.64203135 62.40520773 -0.62062073 60.50234985 C-0.56536373 55.48823775 -0.51597047 50.47408418 -0.46777344 45.4598999 C-0.41758488 40.34562478 -0.36188502 35.23141006 -0.30664062 30.1171875 C-0.19901469 20.07817657 -0.09757958 10.03911325 0 0 Z " fill="#191310" transform="translate(605,421)"/>
<path d="M0 0 C0.33 0 0.66 0 1 0 C1 18.81 1 37.62 1 57 C0.67 57 0.34 57 0 57 C-0.33 41.49 -0.66 25.98 -1 10 C-1.99 10.495 -1.99 10.495 -3 11 C-2.01 7.37 -1.02 3.74 0 0 Z " fill="#211B16" transform="translate(434,457)"/>
<path d="M0 0 C0.33 0 0.66 0 1 0 C1 8.58 1 17.16 1 26 C0.01 24.68 -0.98 23.36 -2 22 C-1.67 21.34 -1.34 20.68 -1 20 C-0.84876169 18.4804236 -0.75118307 16.95527498 -0.68359375 15.4296875 C-0.64169922 14.53378906 -0.59980469 13.63789063 -0.55664062 12.71484375 C-0.49766602 11.30912109 -0.49766602 11.30912109 -0.4375 9.875 C-0.39431641 8.93011719 -0.35113281 7.98523438 -0.30664062 7.01171875 C-0.20040928 4.67462908 -0.09836824 2.3374317 0 0 Z " fill="#211915" transform="translate(605,486)"/>
<path d="M0 0 C2.97 0.495 2.97 0.495 6 1 C5.25 6.75 5.25 6.75 3 9 C2.01 6.03 1.02 3.06 0 0 Z " fill="#2A201B" transform="translate(398,461)"/>
<path d="M0 0 C0.99 0.33 1.98 0.66 3 1 C2.65120368 4.25543229 1.97866739 5.01873107 -0.5625 7.25 C-1.7690625 8.11625 -1.7690625 8.11625 -3 9 C-2.01 6.03 -1.02 3.06 0 0 Z " fill="#5F5247" transform="translate(537,446)"/>
</svg>
